REM DIRINDEX 1\2,1\3\7,1\3\8,1\4\9,1\4\10,1\4\11,1\5\12,1\5\13,1\5\14,1\6\15,1\6\16,1\6\17
REM DIRNAME "folder01","folder02","folder03","folder04","folder05","folder06","folder07","folder08","folder09","folder10","folder11","folder12","folder13","folder14","folder15","folder16","folder17"
TITLE ""
FILE "2Q_j_1528-1541.mp3" MP3
  TRACK 01 AUDIO
    TITLE "0:"
    INDEX 01 00:00:00
  TRACK 02 AUDIO
    TITLE "9:cjc174_0803"
    INDEX 01 00:00:14
  TRACK 03 AUDIO
    TITLE "0:"
    INDEX 01 00:01:49
  TRACK 04 AUDIO
    TITLE "10:cjc174_0804"
    INDEX 01 00:02:19
  TRACK 05 AUDIO
    TITLE "0:"
    INDEX 01 00:04:20
  TRACK 06 AUDIO
    TITLE "11:cjc174_0805"
    INDEX 01 00:04:65
  TRACK 07 AUDIO
    TITLE "0:"
    INDEX 01 00:07:67
  TRACK 08 AUDIO
    TITLE "9:cjc174_0806"
    INDEX 01 00:08:39
  TRACK 09 AUDIO
    TITLE "0:"
    INDEX 01 00:09:58
  TRACK 10 AUDIO
    TITLE "10:cjc174_0807"
    INDEX 01 00:10:28
  TRACK 11 AUDIO
    TITLE "0:"
    INDEX 01 00:12:61
  TRACK 12 AUDIO
    TITLE "11:cjc174_0808"
    INDEX 01 00:13:31
  TRACK 13 AUDIO
    TITLE "0:"
    INDEX 01 00:19:15
  TRACK 14 AUDIO
    TITLE "9:cjc174_0809"
    INDEX 01 00:19:64
  TRACK 15 AUDIO
    TITLE "0:"
    INDEX 01 00:21:12
  TRACK 16 AUDIO
    TITLE "10:cjc174_0810"
    INDEX 01 00:21:58
  TRACK 17 AUDIO
    TITLE "0:"
    INDEX 01 00:22:73
  TRACK 18 AUDIO
    TITLE "11:cjc174_0811"
    INDEX 01 00:23:43
  TRACK 19 AUDIO
    TITLE "0:"
    INDEX 01 00:26:02
  TRACK 20 AUDIO
    TITLE "9:cjc174_0812"
    INDEX 01 00:26:53
  TRACK 21 AUDIO
    TITLE "0:"
    INDEX 01 00:28:26
  TRACK 22 AUDIO
    TITLE "10:cjc174_0813"
    INDEX 01 00:28:73
  TRACK 23 AUDIO
    TITLE "0:"
    INDEX 01 00:31:01
  TRACK 24 AUDIO
    TITLE "11:cjc174_0814"
    INDEX 01 00:31:46
  TRACK 25 AUDIO
    TITLE "0:"
    INDEX 01 00:34:31
  TRACK 26 AUDIO
    TITLE "9:cjc174_0815"
    INDEX 01 00:35:11
  TRACK 27 AUDIO
    TITLE "0:"
    INDEX 01 00:36:51
  TRACK 28 AUDIO
    TITLE "10:cjc174_0816"
    INDEX 01 00:37:21
  TRACK 29 AUDIO
    TITLE "0:"
    INDEX 01 00:40:59
  TRACK 30 AUDIO
    TITLE "11:cjc174_0817"
    INDEX 01 00:41:29
  TRACK 31 AUDIO
    TITLE "0:"
    INDEX 01 00:44:47
  TRACK 32 AUDIO
    TITLE "9:cjc174_0818"
    INDEX 01 00:45:17
  TRACK 33 AUDIO
    TITLE "0:"
    INDEX 01 00:46:54
  TRACK 34 AUDIO
    TITLE "10:cjc174_0819"
    INDEX 01 00:47:27
  TRACK 35 AUDIO
    TITLE "0:"
    INDEX 01 00:49:05
  TRACK 36 AUDIO
    TITLE "11:cjc174_0820"
    INDEX 01 00:49:50
  TRACK 37 AUDIO
    TITLE "0:"
    INDEX 01 00:52:36
  TRACK 38 AUDIO
    TITLE "9:cjc174_0821"
    INDEX 01 00:53:12
  TRACK 39 AUDIO
    TITLE "0:"
    INDEX 01 00:54:55
  TRACK 40 AUDIO
    TITLE "10:cjc174_0822"
    INDEX 01 00:55:27
  TRACK 41 AUDIO
    TITLE "0:"
    INDEX 01 00:59:13
  TRACK 42 AUDIO
    TITLE "11:cjc174_0823"
    INDEX 01 00:59:58
  TRACK 43 AUDIO
    TITLE "0:"
    INDEX 01 01:04:65
  TRACK 44 AUDIO
    TITLE "9:cjc174_0824"
    INDEX 01 01:05:35
  TRACK 45 AUDIO
    TITLE "0:"
    INDEX 01 01:06:60
  TRACK 46 AUDIO
    TITLE "10:cjc174_0825"
    INDEX 01 01:07:30
  TRACK 47 AUDIO
    TITLE "0:"
    INDEX 01 01:11:42
  TRACK 48 AUDIO
    TITLE "11:cjc174_0826"
    INDEX 01 01:12:12
  TRACK 49 AUDIO
    TITLE "0:"
    INDEX 01 01:14:73
  TRACK 50 AUDIO
    TITLE "9:cjc174_0827"
    INDEX 01 01:15:41
  TRACK 51 AUDIO
    TITLE "0:"
    INDEX 01 01:17:13
  TRACK 52 AUDIO
    TITLE "10:cjc174_0828"
    INDEX 01 01:17:60
  TRACK 53 AUDIO
    TITLE "0:"
    INDEX 01 01:19:20
  TRACK 54 AUDIO
    TITLE "11:cjc174_0829"
    INDEX 01 01:19:65
  TRACK 55 AUDIO
    TITLE "0:"
    INDEX 01 01:22:26
  TRACK 56 AUDIO
    TITLE "9:cjc174_0830"
    INDEX 01 01:23:02
  TRACK 57 AUDIO
    TITLE "0:"
    INDEX 01 01:24:40
  TRACK 58 AUDIO
    TITLE "10:cjc174_0831"
    INDEX 01 01:25:12
  TRACK 59 AUDIO
    TITLE "0:"
    INDEX 01 01:26:41
  TRACK 60 AUDIO
    TITLE "11:cjc174_0832"
    INDEX 01 01:27:11
  TRACK 61 AUDIO
    TITLE "0:"
    INDEX 01 01:30:66
  TRACK 62 AUDIO
    TITLE "9:cjc174_0833"
    INDEX 01 01:31:35
  TRACK 63 AUDIO
    TITLE "0:"
    INDEX 01 01:32:67
  TRACK 64 AUDIO
    TITLE "10:cjc174_0834"
    INDEX 01 01:33:39
  TRACK 65 AUDIO
    TITLE "0:"
    INDEX 01 01:35:50
  TRACK 66 AUDIO
    TITLE "11:cjc174_0835"
    INDEX 01 01:36:20
  TRACK 67 AUDIO
    TITLE "0:"
    INDEX 01 01:40:08
  TRACK 68 AUDIO
    TITLE "9:cjc174_0836"
    INDEX 01 01:40:61
  TRACK 69 AUDIO
    TITLE "0:"
    INDEX 01 01:43:63
  TRACK 70 AUDIO
    TITLE "10:cjc174_0837"
    INDEX 01 01:44:35
  TRACK 71 AUDIO
    TITLE "0:"
    INDEX 01 01:47:57
  TRACK 72 AUDIO
    TITLE "11:cjc174_0838"
    INDEX 01 01:48:27
  TRACK 73 AUDIO
    TITLE "0:"
    INDEX 01 01:52:25
  TRACK 74 AUDIO
    TITLE "9:cjc174_0839"
    INDEX 01 01:52:72
  TRACK 75 AUDIO
    TITLE "0:"
    INDEX 01 01:54:36
  TRACK 76 AUDIO
    TITLE "10:cjc174_0840"
    INDEX 01 01:55:06
  TRACK 77 AUDIO
    TITLE "0:"
    INDEX 01 01:58:33
  TRACK 78 AUDIO
    TITLE "11:cjc174_0841"
    INDEX 01 01:59:04
  TRACK 79 AUDIO
    TITLE "0:"
    INDEX 01 02:02:27
  TRACK 80 AUDIO
    TITLE "9:cjc174_0842"
    INDEX 01 02:03:01
  TRACK 81 AUDIO
    TITLE "0:"
    INDEX 01 02:04:20
  TRACK 82 AUDIO
    TITLE "10:cjc174_0843"
    INDEX 01 02:04:69
  TRACK 83 AUDIO
    TITLE "0:"
    INDEX 01 02:07:09
  TRACK 84 AUDIO
    TITLE "11:cjc174_0844"
    INDEX 01 02:07:54
  TRACK 85 AUDIO
    TITLE "0:"
    INDEX 01 02:12:10
